FFmpeg version SVN-r25716, Copyright (c) 2000-2010 the FFmpeg developers  built on Nov 10 2010 12:23:18 with gcc 4.1.2 20080704 (Red Hat 4.1.2-48)  configuration: --enable-libmp3lame --enable-shared --disable-mmx --arch=x86_64  libavutil     50.33. 0 / 50.33. 0  libavcore      0.12. 1 /  0.12. 1  libavcodec    52.94. 4 / 52.94. 4  libavformat   52.84. 0 / 52.84. 0  libavdevice   52. 2. 2 / 52. 2. 2  libavfilter    1.59. 0 /  1.59. 0  libswscale     0.12. 0 /  0.12. 0Input #0, avi, from '/RAID10/data/converted_video_files/11955.avi':  Duration: 00:00:16.64, start: 0.000000, bitrate: 12051 kb/s    Stream #0.0: Video: mpeg4, yuv420p, 704x480 [PAR 1:1 DAR 22:15], 25 tbr, 29.97 tbn, 25 tbc[buffer @ 0x1fe299a0] w:704 h:480 pixfmt:yuv420pOutput #0, flv, to '/RAID10/data/converted_video_files/11955.flv':  Metadata:    encoder         : Lavf52.84.0    Stream #0.0: Video: flv, yuv420p, 704x480 [PAR 1:1 DAR 22:15], q=2-31, 600 kb/s, 1k tbn, 24 tbcStream mapping:  Stream #0.0 -> #0.0Press [q] to stop encodingframe=   38 fps=  0 q=21.2 size=     322kB time=1.62 bitrate=1626.5kbits/s dup=0 drop=9    frame=   70 fps= 68 q=22.1 size=     409kB time=2.96 bitrate=1132.7kbits/s dup=0 drop=17    frame=  111 fps= 72 q=23.7 size=     535kB time=4.67 bitrate= 939.1kbits/s dup=0 drop=27    frame=  149 fps= 73 q=24.6 size=     645kB time=6.25 bitrate= 845.6kbits/s dup=0 drop=37    frame=  188 fps= 74 q=22.1 size=     756kB time=7.87 bitrate= 786.1kbits/s dup=0 drop=47    frame=  228 fps= 74 q=20.8 size=     868kB time=9.54 bitrate= 744.9kbits/s dup=0 drop=56    frame=  267 fps= 75 q=21.5 size=     993kB time=11.17 bitrate= 728.5kbits/s dup=0 drop=66    frame=  307 fps= 75 q=21.1 size=    1108kB time=12.83 bitrate= 707.3kbits/s dup=0 drop=76    frame=  344 fps= 75 q=21.8 size=    1218kB time=14.37 bitrate= 694.1kbits/s dup=0 drop=85    frame=  383 fps= 75 q=21.7 size=    1333kB time=16.00 bitrate= 682.7kbits/s dup=0 drop=95    frame=  400 fps= 75 q=22.0 Lsize=    1392kB time=16.71 bitrate= 682.4kbits/s dup=0 drop=99    video:1385kB audio:0kB global headers:0kB muxing overhead 0.465931%